<?xml version="1.0" encoding="utf-8"?>
<!-- Generator: Adobe Illustrator 22.1.0, SVG Export Plug-In . SVG Version: 6.00 Build 0)  -->
<svg version="1.1" id="Layer_1" xmlns="http://www.w3.org/2000/svg" xmlns:xlink="http://www.w3.org/1999/xlink" x="0px" y="0px"
	 viewBox="0 0 500 500" style="enable-background:new 0 0 500 500;" xml:space="preserve">
<style type="text/css">
	.st0{fill:#FFFFFF;}
	.st1{fill:none;stroke:#FFFFFF;stroke-width:7;}
	.st2{fill:none;stroke:#000000;}
</style>
<g>
	<path class="st0" d="M249.6,488.7c131.9,0,238.9-106.9,238.9-238.9c0-131.9-106.9-238.9-238.9-238.9S10.7,117.9,10.7,249.8
		C10.7,381.7,117.7,488.7,249.6,488.7L249.6,488.7z"/>
	<path class="st1" d="M249.6,488.7c131.9,0,238.9-106.9,238.9-238.9c0-131.9-106.9-238.9-238.9-238.9S10.7,117.9,10.7,249.8
		C10.7,381.7,117.7,488.7,249.6,488.7L249.6,488.7z"/>
	<path d="M249.6,463.6c118.1,0,213.8-95.7,213.8-213.8S367.7,36,249.6,36S35.8,131.7,35.8,249.8S131.5,463.6,249.6,463.6
		L249.6,463.6z"/>
	<path class="st2" d="M250,490c132.5,0,240-107.5,240-240S382.5,10,250,10S10,117.5,10,250S117.5,490,250,490L250,490z"/>
	<path class="st0" d="M85.9,363.7c33.2,0,60.2-16.9,60.2-51.2c0-27.3-23.9-42.1-49.9-42.1c-22.1,0-32.8,7.5-39.7,14.1l5.3-28
		c1.2,0.2,20.7,0.9,25.3,0.9c22.7,0,47-10.3,63.4-41.8l-1.6-1.2c-8.5,8-27.6,10.3-41.5,10.3c-15.2,0-36.1-5.4-38.9-9.2h-2.4
		l-15,79.7l3.2,1.2c5.9-13.2,18-21.4,28.8-21.4c15,0,21.9,13.6,21.9,36.7c0,30.6-8.7,49.6-22.9,49.6c-7.7,0-13.2-4.2-14-9.9
		c3-7.3,7.3-15.5,7.3-26.3c0-9.2-6.7-15.5-16-15.5c-8.9,0-17.6,7.3-17.6,22.6C41.8,355.2,59.8,363.7,85.9,363.7L85.9,363.7z
		 M199.6,351.1c23.1,0,48.2-19.4,48.2-60c0-33.5-19.2-55.2-46.4-55.2c-22.7,0-48,19.2-48,60C153.3,329,172.6,351.1,199.6,351.1
		L199.6,351.1z M200.2,348.9c-12.3,0-15.6-21.5-15.6-55.3c0-36.4,5.9-55.5,16.2-55.5c12.5,0,15.8,22.4,15.8,55.3
		C216.5,329.6,210.8,348.9,200.2,348.9L200.2,348.9z M300,351.1c23.1,0,48.2-19.4,48.2-60c0-33.5-19.2-55.2-46.4-55.2
		c-22.7,0-48,19.2-48,60C253.8,329,273,351.1,300,351.1L300,351.1z M300.6,348.9c-12.3,0-15.6-21.5-15.6-55.3
		c0-36.4,5.9-55.5,16.2-55.5c12.5,0,15.8,22.4,15.8,55.3C317,329.6,311.3,348.9,300.6,348.9L300.6,348.9z M400.4,351.1
		c23.1,0,48.2-19.4,48.2-60c0-33.5-19.2-55.2-46.4-55.2c-22.7,0-48,19.2-48,60C354.2,329,373.4,351.1,400.4,351.1L400.4,351.1z
		 M401,348.9c-12.3,0-15.6-21.5-15.6-55.3c0-36.4,5.9-55.5,16.2-55.5c12.5,0,15.8,22.4,15.8,55.3C417.4,329.6,411.7,348.9,401,348.9
		L401,348.9z"/>
	<polygon class="st0" points="147.8,215.9 147.8,199.3 162.5,199.3 162.5,157.5 152.6,157.5 152.6,139.6 205.6,139.6 205.6,157.5 
		195.6,157.5 195.6,199.2 205.6,199.2 205.6,215.9 147.8,215.9 	"/>
	<path class="st0" d="M253.6,215.9v-16.6h7.7v-17.4c0-5.2-3.7-7.6-8.6-7.6c-6.1,0-10.7,4.5-10.7,10.6v14.4h7.9v16.6h-41.5v-16.6h7.5
		v-25.1h-7.5v-16.6h32.7V169c0.5-0.4,1.1-1.1,1.5-1.6c6-6.8,12.8-9.3,21.8-9.3c12.6,0,22.9,5.1,22.9,19.1v22h6.7v16.6H253.6
		L253.6,215.9z"/>
	<path class="st0" d="M360.3,182.2l-22.4,2.5c-0.3-6.2-1.5-12.8-9.1-12.8c-9.6,0-10.4,8-10.4,15.7v0v0.2c0,7.7,0.7,15.7,10.4,15.7
		c5.1,0,9.5-2.9,9.5-9l0.7,0l21.6,0l-0.2,1.9c-3.7,18.1-20,21-31.8,21c-18.5,0-36.7-9.1-36.7-29.7v0.1c0-20.6,18.2-29.7,36.7-29.7
		C328.5,157.9,357.5,156.1,360.3,182.2L360.3,182.2z"/>
	<path class="st0" d="M378.2,207.7c0,5.2-4.2,9.4-9.4,9.4c-5.2,0-9.4-4.2-9.4-9.4c0-5.2,4.2-9.4,9.4-9.4
		C374,198.3,378.2,202.5,378.2,207.7L378.2,207.7z"/>
	<path class="st0" d="M131.2,139.8c-0.7,0.8-2,2.1-2.6,2.4c-1.1,0.7-2.1,0.4-2.9-0.3l-21.6-17.1c-0.9-0.7-1.5-1.5-1-2.8
		c0.3-0.8,1.1-2.2,1.7-3.1l-0.3-0.2L94.1,132l0.3,0.2c0.6-0.7,1.9-1.9,2.7-2.4c1.1-0.6,2.1-0.4,2.9,0.3l9.9,7.8l-9.6,12.2l-10-7.9
		c-0.9-0.7-1.4-1.5-1-2.8c0.3-0.8,1.3-2.4,1.8-3.1l-0.3-0.2l-10.5,13.3l0.3,0.2c0.7-0.8,1.9-1.9,2.7-2.4c1.1-0.7,2.1-0.4,2.9,0.3
		l21.7,17.1c0.9,0.7,1.3,1.5,0.9,2.7c-0.2,0.7-1.1,2.1-1.8,3.1l0.3,0.2l10.5-13.3l-0.3-0.2c-0.7,0.8-2.1,2.1-2.6,2.5
		c-1.1,0.6-2.1,0.4-2.9-0.3l-11-8.7l9.6-12.2l11.2,8.8c0.9,0.7,1.3,1.5,0.9,2.7c-0.2,0.7-1.3,2.4-1.8,3.1l0.3,0.2l10.4-13.2
		L131.2,139.8L131.2,139.8z M148.2,111.8c-4.3-5.4-11-6.5-16.8-1.9c-5.7,4.6-6.3,11.5-1.8,17.1c4.7,5.9,11.8,6.1,16.8,2.1
		C152.6,124.1,152.5,117.1,148.2,111.8L148.2,111.8z M143.2,115.8c4,4.9,6.4,10.1,3.1,12.7c-3.5,2.8-7.9-0.9-11.8-5.8
		c-3.3-4.2-6.3-9.4-2.7-12.4C135.2,107.7,139.6,111.3,143.2,115.8L143.2,115.8z M184.2,104.3c-0.8,0.4-1.4,0.6-2.1,0.7
		c-1,0.1-1.6-0.4-2.1-1.4l-6.1-11.1c-2.3-4.2-5.6-6-9.8-3.7c-3.8,2-4.3,4.9-5,7.4l-0.1,0.1l-1.7-3.1L157,93l-7.9,5l0.1,0.3
		c0.8-0.4,1.8-0.6,2.5-0.6c0.9,0.1,1.8,0.7,2.4,1.7l7.8,14.3c0.5,1,0.6,1.8-0.1,2.5c-0.5,0.5-1,0.9-1.7,1.3l0.2,0.3l11-6l-0.2-0.3
		c-0.7,0.3-1.4,0.6-2.2,0.7c-0.9,0.1-1.5-0.5-2.1-1.5l-7.3-13.4c0-1.2,0.7-3.6,3.4-5c1.7-0.9,4-0.4,5.7,2.6l6.3,11.6
		c0.5,1,0.7,1.8,0.1,2.5c-0.4,0.5-1,0.9-1.7,1.3l0.2,0.3l11-6L184.2,104.3L184.2,104.3z M209.3,84.5c-2-6.6-7.9-10.1-14.9-7.9
		c-7,2.2-10.1,8.4-8,15.3c2.2,7.2,8.8,10,14.9,8.1C208.9,97.6,211.3,91,209.3,84.5L209.3,84.5z M203.1,86.4c1.9,6.1,2.3,11.7-1.8,13
		c-4.2,1.3-7-3.8-8.9-9.8c-1.6-5.1-2.4-11.1,2-12.5C198.7,75.9,201.4,80.9,203.1,86.4L203.1,86.4z M233.9,72.4
		c-0.3-2.1-2.1-3.5-4.3-3.2c-2.2,0.3-4.3,2-6,5l-0.1,0l-0.5-3.5l-0.2-0.2l-9.2,2l0,0.3c0.9-0.1,1.9,0,2.6,0.3
		c0.8,0.4,1.5,1.4,1.7,2.4l2.5,16c0.2,1.1-0.1,1.9-1,2.4c-0.7,0.4-1.2,0.5-2.1,0.7l0.1,0.3l13.8-2.1l-0.1-0.3
		c-0.9,0.1-2.5,0.3-3.3,0.1c-0.9-0.2-1.5-0.9-1.7-2l-2.4-15.3c0.4-1,2.1-3.4,4.3-3.8c-0.1,0.8-0.4,1.8-0.3,2.7
		c0.3,1.9,1.7,2.7,3.6,2.4C233.2,76.2,234.2,74.4,233.9,72.4L233.9,72.4z M261.2,85.7c-1.8,3.3-4,4.8-7.5,4.8
		c-5.4,0-7.2-4.9-7.3-11.1l0-1.1l14.7-0.1l0-0.4c0-5-2.7-9.6-9.9-9.6c-7.1,0.1-11,5.9-11,12.1c0.1,6.7,3.7,12.2,11.6,12.2
		c4.6,0,8.1-2.8,9.8-6.5L261.2,85.7L261.2,85.7z M246.4,77.8c0.1-5.2,1.8-9,4.5-9c3.4,0,3.9,4.8,4,8.8L246.4,77.8L246.4,77.8z
		 M288,89.6c-2.4,2.9-4.7,4.1-8.2,3.5c-5.3-0.8-6.3-6-5.3-12.2l0.2-1.1l14.5,2.3l0.1-0.4c0.8-5-1.1-9.9-8.2-11.1
		c-7-1.1-11.8,4-12.8,10.1c-1.1,6.7,1.6,12.7,9.4,13.9c4.5,0.7,8.4-1.5,10.8-4.8L288,89.6L288,89.6z M274.7,79.4
		c1-5.1,3.2-8.5,6-8.1c3.4,0.5,3.1,5.4,2.4,9.3L274.7,79.4L274.7,79.4z M349.4,112.1c-1.9,1.3-4.6,2.9-6.8,1.6l-12.5-7.1l2.2-0.3
		c12.4,0.5,19.9-0.3,23.3-6.2c2.5-4.4,0.3-9-4.7-11.9c-6.9-4-14.8-1.5-17.3,2.9c-1.7,3-0.6,5.9,2.1,7.4c3.1,1.7,6.4,1,8.9-0.4
		l-0.1-0.4c-1.4,0.6-3.5,1.4-5.7,0.1c-1.8-1-1.8-2.9-0.6-4.9c2-3.4,7.1-7.3,11.5-4.8c2.9,1.6,3.2,4.5,1.3,7.9
		c-2.3,4-5.3,6.4-11.2,7.9c-4.9,1.3-9.3,1.9-15.4,2.7l-1,1.8l19.1,10.9l7.4-6.8L349.4,112.1L349.4,112.1z M381.5,130.9
		c5.4-6.2,6.5-14.6,0-20.2c-5.4-4.7-14.6-4.3-21.4,3.4c-5.4,6.1-6.5,14.6-0.1,20.2C365.6,139.1,374.7,138.6,381.5,130.9L381.5,130.9
		z M376,126.9c-6,6.8-12.1,10.1-15.4,7.2c-3.9-3.4-0.3-9.7,5.2-16c6-6.8,12.1-10.1,15.4-7.2C385,114.3,381.3,120.8,376,126.9
		L376,126.9z M386.7,162c-0.5-0.7-1.7-2.6-1.9-3.4c-0.3-1-0.1-1.8,1-2.6l15.3-12.3c2.4-1.9,4.5-3.5,6.5-4.6l-0.3-0.4
		c-1.6-0.6-3.3-1.5-5.5-3.3c-2.1-1.6-3.2-2.6-5.1-4.4l-0.3,0.3l4.4,4.8l-19,15.2c-0.9,0.7-1.9,0.7-2.8,0.1c-1-0.6-2.3-2-2.9-2.7
		l-0.3,0.2l10.6,13.3L386.7,162L386.7,162z M416.2,181c9.3-5.1,10.3-12.2,7.4-17.4c-4.1-7.6-11.5-7.6-16.1-5
		c-5.9,3.2-7.2,8.9-4.9,13.1c1.7,3.2,4.6,4.7,7.7,5l0.1,0.2c-8.1,3.4-17.4,4.9-20,0.2c-0.6-1.2-0.5-2.2,0.8-3.5
		c1.7-1.6,4.5-3.1,3.1-5.6c-1-1.9-2.6-2.3-4.4-1.4c-2.3,1.3-3.5,4.7-1.1,9.2C393.9,185,406,186.5,416.2,181L416.2,181z M416.7,173.7
		c-6.2,3.4-10,2.1-11.4-0.3c-1.8-3.3,0.7-6.5,5.9-9.3c3.6-1.9,9.6-4.6,11.9-0.3C424.7,166.6,422.3,170.7,416.7,173.7L416.7,173.7z
		 M351.1,378c0.5-0.4,1.4-1.1,1.8-1.3c0.7-0.3,1.3-0.1,1.8,0.4l12.3,12.5c0.5,0.5,0.8,1.1,0.4,1.8c-0.3,0.5-0.9,1.3-1.3,1.8l0.2,0.2
		l7.6-7.5l-0.2-0.2c-0.4,0.4-1.4,1.1-1.9,1.3c-0.7,0.3-1.3,0.1-1.8-0.4l-5.6-5.7l7-6.9l5.7,5.8c0.5,0.5,0.8,1.1,0.4,1.8
		c-0.3,0.5-1,1.4-1.4,1.8l0.2,0.2l7.6-7.5l-0.2-0.2c-0.5,0.5-1.4,1-1.9,1.3c-0.7,0.3-1.3,0.1-1.8-0.4l-12.3-12.5
		c-0.5-0.5-0.7-1-0.3-1.8c0.2-0.4,0.9-1.3,1.4-1.8l-0.2-0.2L361,368l0.2,0.2c0.5-0.4,1.5-1.2,1.9-1.3c0.7-0.3,1.3-0.1,1.8,0.4
		l6.2,6.3l-7,6.9l-6.3-6.4c-0.5-0.5-0.7-1-0.3-1.8c0.2-0.4,1-1.4,1.4-1.8l-0.2-0.2l-7.6,7.5L351.1,378L351.1,378z M335.4,402.3
		c1.9,2.8,4.6,4.5,7.3,4.9c3.1,0.5,5.9-0.3,8.4-2c2.5-1.7,4.2-4.1,4.8-7c0.6-2.9,0-5.9-2.1-9c-2-2.9-4.6-4.4-7.4-4.8
		c-2.8-0.4-5.7,0.2-8.1,1.9c-2.7,1.9-4.3,4.2-4.9,6.9C332.7,396.3,333.5,399.5,335.4,402.3L335.4,402.3z M339.3,399.5
		c-3.5-5.2-4.6-10.2-0.9-12.8c3.7-2.6,8.1,0.4,11.5,5.4c3.9,5.7,4.3,10.5,0.9,12.8C346.9,407.6,342.5,404.1,339.3,399.5L339.3,399.5
		z M314.6,424.6l7.8-3.8l-0.1-0.2c-0.6,0.3-2.3,0.9-3.1,0.7c-0.9-0.2-1.9-1.5-3-3.7l-4.5-9.3l18.2,8.9l6.6-3.2l-0.1-0.2
		c-1,0.3-2.3,0.7-3.2,0.5c-0.9-0.3-1.7-1.1-2.1-1.9l-5.5-11.4c-1.1-2.2-1.4-3.5-1-4.4c0.4-0.7,1.9-1.6,2.3-1.9l-0.1-0.2l-7.8,3.8
		l0.1,0.2c0.5-0.2,2.4-0.8,3.2-0.7c0.9,0.2,1.7,1.1,2.9,3.5l5.7,11.8l-21.3-10.4l-0.9,0.4l7.1,14.8c1,2,1.5,3.7,1.1,4.6
		c-0.4,0.8-1.9,1.6-2.3,1.9L314.6,424.6L314.6,424.6z M283.9,422.3c0.9,3.3,2.9,5.7,5.4,7c2.7,1.5,5.7,1.6,8.6,0.8
		c2.9-0.8,5.3-2.6,6.8-5.1c1.5-2.5,1.9-5.6,0.9-9.1c-0.9-3.3-3-5.6-5.5-6.9c-2.5-1.3-5.5-1.6-8.3-0.8c-3.2,0.9-5.4,2.6-6.8,5
		C283.1,415.8,282.9,419,283.9,422.3L283.9,422.3z M288.5,420.9c-1.7-6.1-1.1-11.2,3.2-12.4c4.4-1.2,7.5,2.9,9.2,8.8
		c1.9,6.7,0.8,11.3-3.2,12.4C293,431,290,426.2,288.5,420.9L288.5,420.9z M255.1,419.6l0.4,0l-0.1-0.7c-0.2-2,0.6-3.1,1.6-3.2
		c0.5-0.1,1.2,0.1,1.7,1.3c0.5,1.5,0.9,3,1.5,4.7c0.9,2.2,3.3,2.8,5.4,2.8l0,0.3c-2.8,0.9-5.9,2.8-5.6,6.3c0.4,3.5,3.9,4.6,7.9,4.1
		l11.3-1.2l0-0.2c-0.6,0-1.8,0-2.4-0.2c-0.8-0.2-1.1-0.8-1.2-1.5l-1.8-17.3c-0.1-0.7,0.1-1.3,0.8-1.7c0.4-0.2,1.7-0.5,2.3-0.6l0-0.2
		l-10.8,1.1l0,0.2c0.6,0,1.9,0,2.3,0.1c0.8,0.2,1.1,0.8,1.1,1.5l0.9,8.6l-1.8,0.2c-3.3,0.3-4.2-2.4-4.9-5.3c-0.9-3.7-2.4-5.1-5-4.8
		c-3.2,0.3-4.2,2.3-3.9,5.1L255.1,419.6L255.1,419.6z M264.7,429.9c-0.4-3.6,1.9-5.3,4.6-5.6l1.3-0.1l1.1,10.1l-2,0.2
		C267.1,434.8,265.1,433.3,264.7,429.9L264.7,429.9z M233.1,413.7l-0.7,6.4l0.3,0c0.5-1,2.3-4,3.5-5.1c0.8-0.7,2.9-0.6,4.9-0.5
		c3.1,0.1,3.6,0.5,3.5,2.9l-0.3,7.9l-2.7-0.1c-1.7-0.1-2.3-0.6-2.7-1.1c-0.4-0.5-1.1-2.5-1.2-3.4l-0.3,0l-0.3,9l0.3,0
		c0.2-0.8,0.9-2.6,1.5-3.2c0.4-0.4,1-1,2.8-0.9l2.7,0.1l-0.4,9.9l-3.1-0.1c-1,0-2.2-0.2-3-0.3c-1.5-0.2-3.4-3.5-3.8-4.9l-0.3,0
		l-0.2,5.3l18,0.7l0-0.2c-0.7-0.1-1.8-0.3-2.4-0.5c-0.8-0.3-1-0.9-0.9-1.6l0.7-17.5c0-0.7,0.3-1.2,1-1.5c0.5-0.1,1.7-0.3,2.4-0.3
		l0-0.2L233.1,413.7L233.1,413.7z M211,409.6l-1.6,6.2l0.3,0.1c0.7-0.9,2.9-3.7,4.2-4.6c0.9-0.6,3-0.2,5,0.2c3,0.6,3.5,1,3,3.4
		l-1.4,7.8l-2.6-0.5c-1.7-0.3-2.2-0.9-2.5-1.5c-0.4-0.6-0.8-2.6-0.7-3.6l-0.3-0.1l-1.6,8.8l0.3,0.1c0.3-0.8,1.2-2.5,1.9-2.9
		c0.5-0.3,1.1-0.8,2.9-0.5l2.6,0.5l-1.8,9.8l-3.1-0.6c-1-0.2-2.2-0.5-2.9-0.7c-1.4-0.5-2.9-3.9-3-5.4l-0.3-0.1l-1,5.2l17.7,3.3
		l0-0.2c-0.7-0.2-1.8-0.5-2.3-0.8c-0.7-0.4-0.8-1.1-0.7-1.7l3.2-17.2c0.1-0.7,0.4-1.2,1.2-1.3c0.5-0.1,1.7,0,2.4,0.1l0-0.2
		L211,409.6L211,409.6z M172.7,400.9c1.2-0.9,2.8-2.1,4.3-1.4l8.2,3.9l-1.4,0.3c-7.9,0.2-12.6,1.1-14.4,5c-1.4,2.9,0.2,5.7,3.6,7.3
		c4.6,2.2,9.4,0.3,10.8-2.6c1-2,0.1-3.8-1.6-4.6c-2-1-4.1-0.4-5.6,0.7l0.1,0.2c0.8-0.4,2.1-1,3.6-0.3c1.2,0.6,1.2,1.8,0.6,3.1
		c-1.1,2.3-4.1,5-7,3.6c-1.9-0.9-2.2-2.7-1.2-4.9c1.3-2.6,3.1-4.3,6.7-5.5c3-1,5.8-1.7,9.7-2.4l0.6-1.2l-12.6-6l-4.4,4.7
		L172.7,400.9L172.7,400.9z M152.5,392.9c-2.8,4.4-2.7,9.7,1.9,12.7c3.8,2.5,9.6,1.3,13.1-4.2c2.8-4.4,2.7-9.8-1.9-12.7
		C161.7,386.2,156,387.4,152.5,392.9L152.5,392.9z M156.3,394.9c3.1-4.8,6.6-7.5,9-6c2.7,1.8,1.1,6.1-1.7,10.5c-3.1,4.8-6.6,7.5-9,6
		C151.9,403.7,153.6,399.2,156.3,394.9L156.3,394.9z M146.5,375.2c0.4,0.4,1.4,1.4,1.6,1.9c0.3,0.6,0.3,1.1-0.3,1.8l-8,9.6
		c-1.2,1.5-2.3,2.8-3.4,3.7l0.2,0.2c1.1,0.1,2.2,0.5,3.9,1.3c1.5,0.7,2.3,1.2,3.7,2.1l0.2-0.2l-3.4-2.5l9.9-11.9
		c0.4-0.5,1.1-0.7,1.7-0.4c0.7,0.3,1.7,1,2.2,1.3l0.1-0.2l-8.3-6.9L146.5,375.2L146.5,375.2z M126.4,369.5
		c-4.8,4.7-4.1,9.2-1.5,11.9c3.8,3.9,8.3,2.6,10.7,0.3c3-3,2.8-6.7,0.7-8.9c-1.6-1.6-3.6-2-5.6-1.7l-0.1-0.1c4.3-3.5,9.8-6,12.1-3.6
		c0.6,0.6,0.7,1.3,0.1,2.3c-0.8,1.3-2.2,2.7-0.9,4c0.9,1,2,1,2.9,0.1c1.2-1.2,1.3-3.5-0.9-5.8C139.3,363.2,131.6,364.4,126.4,369.5
		L126.4,369.5z M127.3,374.1c3.2-3.2,5.7-3,7-1.8c1.7,1.7,0.7,4.1-2,6.7c-1.8,1.8-5,4.5-7.2,2.3
		C123.7,379.8,124.5,376.9,127.3,374.1L127.3,374.1z"/>
</g>
</svg>
